<?xml version="1.0" standalone="no"?>
<!DOCTYPE svg PUBLIC "-//W3C//DTD SVG 20010904//EN"
 "http://www.w3.org/TR/2001/REC-SVG-20010904/DTD/svg10.dtd">
<svg version="1.0" xmlns="http://www.w3.org/2000/svg"
 width="3612.000000pt" height="4156.000000pt" viewBox="0 0 3612.000000 4156.000000"
 preserveAspectRatio="xMidYMid meet">
<metadata>
Created by potrace 1.16, written by Peter Selinger 2001-2019
</metadata>
<g transform="translate(0.000000,4156.000000) scale(0.100000,-0.100000)"
fill="#000000" stroke="none">
<path d="M3210 37195 l0 -1365 3570 0 3570 0 0 -15805 0 -15805 1495 0 1495 0
2 10652 3 10653 120 17 c66 9 122 13 125 9 60 -88 16157 -22950 16166 -22961
12 -12 14 2451 14 15413 l0 15427 -1500 0 -1500 0 -2 -10743 -3 -10743 -362
495 c-441 604 -512 704 -1158 1626 -632 903 -1364 1954 -2530 3635 -3996 5760
-5612 8029 -7722 10847 -647 864 -733 988 -933 1346 -505 907 -763 1842 -857
3107 -25 339 -25 1554 0 2155 9 226 20 488 24 583 l6 172 3504 0 3503 0 0
1325 0 1325 -8515 0 -8515 0 0 -1365z"/>
</g>
</svg>
