<?xml version="1.0" encoding="utf-8"?>
<!-- Generator: Adobe Illustrator 19.0.0, SVG Export Plug-In . SVG Version: 6.00 Build 0)  -->
<svg version="1.1" id="Layer_1" xmlns="http://www.w3.org/2000/svg" xmlns:xlink="http://www.w3.org/1999/xlink" x="0px" y="0px"
	 viewBox="0 0 612 792" style="enable-background:new 0 0 612 792;" xml:space="preserve">
<style type="text/css">
	.st0{fill:none;}
	.st1{fill:#FFFFFF;}
</style>
<g>
	<path class="st0" d="M-390.8,618c0-125,0-250,0-375c125,0,250,0,375,0c0,125,0,250,0,375C-140.8,618-265.8,618-390.8,618z
		 M-210,473.8c0-11.8,0-23.2,0-34.6c1.4,1,2.3,2.2,3,3.4c6.1,9.5,12.1,18.9,18.2,28.3c0.6,0.9,1.7,2.1,2.6,2.2
		c3.7,0.3,7.4,0.1,11.2,0.1c0-19.2,0-37.8,0-56.6c-4.2,0-8.3,0-12.7,0c0,11.6,0,23,0,35.4c-7.7-12-14.7-23-21.7-34
		c-0.6-0.9-0.5-2.3-0.9-4c6.2,0,11.8,0,17.5,0c0-4.9,0-9.4,0-14c-17.2,0-34.3,0-51.5,0c0,4.8,0,9.3,0,14.3c5.9,0,11.6,0,17.7,0
		c0,20.1,0,39.8,0,59.6C-221,473.8-215.8,473.8-210,473.8z"/>
	<path class="st1" d="M299.4,616.9c-47.6,0-90.2,0-137,0c0-116.2,0-231.9,0-349.9c-50,0-96.8,0-145.2,0c0-29.4,0-55.8,0-83.9
		c141.1,0,280.5,0,422.4,0c0,27,0,53.4,0,82.2c-45.9,0-92.7,0-143.5,0c3.3,10,2.5,18.2,7.4,23.5c57.4,65.2,115.6,129.7,178,199.6
		c0-72.8,0-139.7,0-207.8c36.1,0,69.7,0,104.2,0c0,110.4,0,220.1,0,332.2c-31.2,0-61.5,0.6-91.9-0.6c-7.4-0.6-16.4-7.6-21.3-12.9
		c-50-55.2-99.2-110.9-149.3-166.1c-6.6-7-13.1-14.1-24.6-20C299.4,480.7,299.4,547.6,299.4,616.9z"/>
</g>
</svg>
